# xmcd
#
# Track frame offsets:
#	150
#	21082
#	40512
#	49894
#	68119
#	83047
#	104285
#	118624
#	134453
#	155757
#	171521
#	191554
#
# Disc length: 2694 seconds
#
# Revision: 1
# Processed by: cddbd v1.5.2PL0 Copyright (c) Steve Scherf et al.
# Submitted via: audiograbber 1.83.01
#
DISCID=a10a840c
DTITLE=Ernst Molden - Weida foan
DYEAR=2011
DGENRE=Blues
TTITLE0=Rode rechde haund
TTITLE1=Lobau
TTITLE2=I foa heid zu de Gscheadn
TTITLE3=Finstara Schdean
TTITLE4=Es Boodllad
TTITLE5=Featiga Sunndog
TTITLE6=Obiagn
TTITLE7=Katharina
TTITLE8=A Schritt vire (Zwa Schritt zruck)
TTITLE9=Foan
TTITLE10=Da Schurl und da Linke
TTITLE11=Jessica
EXTD=
EXTT0=
EXTT1=
EXTT2=
EXTT3=
EXTT4=
EXTT5=
EXTT6=
EXTT7=
EXTT8=
EXTT9=
EXTT10=
EXTT11=
PLAYORDER=
